<svg xmlns="http://www.w3.org/2000/svg" viewBox="0 0 216.03 99.37"><defs><style>.cls-1{fill:#fff;}.cls-2{stroke:#fff;stroke-miterlimit:10;stroke-width:2px;}</style></defs><title>Asset 22</title><g id="Layer_2" data-name="Layer 2"><g id="Layer_1-2" data-name="Layer 1"><path d="M212.94,71.17V13.45c0-9.28-6.71-9-6.71-9H142.92V0H126.61l-3.27,4.43H75.28V0h-8.5l-1.7,4.43H44.41c-2.84.77-1.81,11.34-1.81,11.34h2.58l-2.35,21.4L14.71,39.1a5.59,5.59,0,0,0-4.66,3.06l-5.61,29H1.16L0,78.5c0,4.64,3,4.3,3,4.3H25.13a16.14,16.14,0,0,1,31-6.28,16.24,16.24,0,0,1,1.27,6.28H160a16.13,16.13,0,1,1,32.25,0H216v-7C216,70.91,212.94,71.17,212.94,71.17Z"/><path class="cls-1" d="M132.14,35.65A2.62,2.62,0,0,1,129.29,38H114a2.62,2.62,0,0,1-2.85-2.31V19.5A2.62,2.62,0,0,1,114,17.19h15.34a2.62,2.62,0,0,1,2.85,2.31Z"/><path class="cls-1" d="M161.92,35.65A2.62,2.62,0,0,1,159.08,38H143.73a2.62,2.62,0,0,1-2.85-2.31V19.5a2.62,2.62,0,0,1,2.85-2.31h15.35a2.62,2.62,0,0,1,2.84,2.31Z"/><path class="cls-1" d="M191.69,35.65A2.61,2.61,0,0,1,188.85,38H173.5a2.62,2.62,0,0,1-2.85-2.31V19.5a2.62,2.62,0,0,1,2.85-2.31h15.35a2.61,2.61,0,0,1,2.84,2.31Z"/><path class="cls-2" d="M41.26,67.24A15.59,15.59,0,0,0,25.69,82.8h0a15.57,15.57,0,1,0,31.13,0h0A15.59,15.59,0,0,0,41.26,67.24Z"/><path class="cls-2" d="M176.13,67.24A15.58,15.58,0,0,0,160.57,82.8h0a15.56,15.56,0,1,0,31.12,0h0A15.58,15.58,0,0,0,176.13,67.24Z"/><path class="cls-1" d="M103.34,35.65A2.62,2.62,0,0,1,100.49,38H85.14a2.62,2.62,0,0,1-2.85-2.31V19.5a2.62,2.62,0,0,1,2.85-2.31h15.35a2.62,2.62,0,0,1,2.85,2.31Z"/><path class="cls-1" d="M74.17,35.65A2.62,2.62,0,0,1,71.32,38H56a2.62,2.62,0,0,1-2.85-2.31V19.5A2.62,2.62,0,0,1,56,17.19H71.32a2.62,2.62,0,0,1,2.85,2.31Z"/></g></g></svg>