<svg xmlns="http://www.w3.org/2000/svg" viewBox="0 0 171.29 191.23"><defs><style>.cls-1,.cls-4{fill:#16c7ff;}.cls-2{fill:#eb2027;}.cls-2,.cls-3{stroke:#fff;stroke-linecap:round;}.cls-2,.cls-3,.cls-4{stroke-miterlimit:10;stroke-width:3.75px;}.cls-3{fill:none;}.cls-4{stroke:#16c7ff;}</style></defs><title>Asset 35new</title><g id="Layer_2" data-name="Layer 2"><g id="Layer_1-2" data-name="Layer 1"><path class="cls-1" d="M20.44,46.73S-8.81,36.28,2.67,9.81A16.12,16.12,0,0,1,17.44.11H148.52s21.65-3.46,22.23,27.75,0,132.56,0,132.56,2.37,8.27-2.83,9.82-136.51,0-136.51,0-9.81.77-9.81-9.82S20.44,46.73,20.44,46.73Z"/><line class="cls-2" x1="44.14" y1="43.47" x2="61.26" y2="43.47"/><line class="cls-2" x1="70.79" y1="43.46" x2="98.1" y2="43.47"/><line class="cls-2" x1="108.87" y1="43.46" x2="120.28" y2="43.46"/><line class="cls-2" x1="44.14" y1="63.04" x2="89.8" y2="63.04"/><line class="cls-2" x1="99.33" y1="63.04" x2="133.48" y2="63.04"/><line class="cls-2" x1="44.14" y1="82.61" x2="66.91" y2="82.61"/><line class="cls-2" x1="76.5" y1="82.61" x2="110.75" y2="82.61"/><line class="cls-2" x1="120.28" y1="82.61" x2="143.12" y2="82.61"/><path class="cls-3" d="M51,144.59s-9.73-25.42,6.18-22.2,3.48,25.77,3.48,25.77l8.52-7.82,1.08,7.82s7.43-7.36,9.5-7.36,1.38,6,1.38,6l13.12.46"/><circle class="cls-3" cx="135.47" cy="144.59" r="17.33"/><polygon class="cls-4" points="127.98 169.19 118.14 187.15 114.47 180.54 106.96 180.52 116.78 163.12 127.98 169.19"/><polygon class="cls-4" points="142.98 169.4 152.82 187.35 156.5 180.75 164 180.73 154.18 163.32 142.98 169.4"/><line class="cls-3" x1="44.14" y1="102.18" x2="84.09" y2="102.18"/><line class="cls-3" x1="93.63" y1="102.18" x2="127.88" y2="102.18"/><path class="cls-3" d="M20.53,11.49A10,10,0,0,0,12,18.28c-1.21,3.62-1.24,5.1-.45,8C13,31.58,18.39,34,22.93,35.28"/></g></g></svg>