<svg xmlns="http://www.w3.org/2000/svg" viewBox="0 0 33.5 96.25"><defs><style>.cls-1{stroke:#000;stroke-miterlimit:10;}</style></defs><title>Asset 19</title><g id="Layer_2" data-name="Layer 2"><g id="Layer_1-2" data-name="Layer 1"><ellipse class="cls-1" cx="16.67" cy="10.49" rx="8.2" ry="9.99"/><path d="M26,20.71a.87.87,0,0,1-.87,1.05H8.22a.88.88,0,0,1-.87-1.05l1.31-6.65h16Z"/><path d="M29.77,37c0-7.85-5.83-14.21-13-14.21s-13,6.36-13,14.21Z"/><polygon points="32.2 81.44 1.3 81.44 5.14 36.48 28.35 36.48 32.2 81.44"/><polygon points="23.3 81.39 21.79 96.25 12.25 96.25 10.11 81.39 23.3 81.39"/><polygon points="3.73 37.01 0 66.47 3.24 66.58 5.06 37.01 3.73 37.01"/><polygon points="29.77 37.01 33.5 66.47 30.16 66.58 28.38 37.01 29.77 37.01"/></g></g></svg>