<svg width="149" height="39" viewBox="0 0 149 39" fill="none" xmlns="http://www.w3.org/2000/svg">
<rect width="149" height="39" rx="19.5" fill="white"/>
<path d="M54.0239 12.7056H49.1997L46.563 17.2856H46.4849L43.8481 12.7056H38.7603L44.2192 21.1235V26.4653H48.6431V21.1235L54.0239 12.7056ZM62.6567 12.7056H57.52L52.4907 26.4653H57.0122L57.5981 24.522H62.4126L62.9985 26.4653H67.6763L62.6567 12.7056ZM60.0591 16.5435L61.4946 21.4458H58.5161L59.9712 16.5435H60.0591ZM73.7603 26.4653V21.5239H79.522V18.3696H73.7603V16.0063H80.4595V12.7056H69.3462V26.4653H73.7603ZM87.1001 26.4653V21.5239H92.8618V18.3696H87.1001V16.0063H93.7993V12.7056H82.686V26.4653H87.1001ZM108.057 26.4653V23.1646H100.44V21.0649H106.846V17.9009H100.44V16.0063H107.92V12.7056H96.0259V26.4653H108.057ZM110.479 12.7056V26.4653H116.436C117.608 26.4653 118.643 26.3286 119.542 26.0552C120.44 25.7752 121.192 25.3521 121.797 24.7856C122.409 24.2192 122.872 23.5063 123.184 22.647C123.497 21.7811 123.653 20.759 123.653 19.5806C123.653 18.4087 123.497 17.3931 123.184 16.5337C122.872 15.6678 122.409 14.9517 121.797 14.3853C121.192 13.8188 120.44 13.3989 119.542 13.1255C118.643 12.8455 117.608 12.7056 116.436 12.7056H110.479ZM116.358 16.0063C116.84 16.0063 117.256 16.0747 117.608 16.2114C117.959 16.3416 118.246 16.5369 118.467 16.7974C118.695 17.0513 118.861 17.3638 118.965 17.7349C119.076 18.0994 119.131 18.5161 119.131 18.9849V20.186C119.131 20.6548 119.076 21.0747 118.965 21.4458C118.861 21.8104 118.695 22.1229 118.467 22.3833C118.246 22.6372 117.959 22.8325 117.608 22.9692C117.256 23.0994 116.84 23.1646 116.358 23.1646H114.893V16.0063H116.358Z" fill="#FF6700"/>
<path d="M24.5786 14.5027C26.3613 14.5027 27.8064 13.0576 27.8064 11.2749C27.8064 9.49225 26.3613 8.04712 24.5786 8.04712C22.796 8.04712 21.3508 9.49225 21.3508 11.2749C21.3508 13.0576 22.796 14.5027 24.5786 14.5027Z" fill="#FF6700"/>
<path d="M18.9299 11.3824L24.1482 12.9425L29.3664 10.8445V19.7209L24.9013 21.8728L19.6831 20.3127L18.9299 11.3824Z" fill="#FAAF41"/>
<path d="M20.9743 20.8508C20.9743 20.8508 20.8129 27.7367 22.5882 27.7905C22.5882 27.7905 23.3413 28.0057 23.7179 26.6608C24.1483 25.3159 24.8476 25.0469 24.8476 25.0469C24.8476 25.0469 26.0311 24.7241 26.4615 24.8855C26.4615 24.8855 26.4615 27.5215 26.6229 27.6291C26.7843 27.7367 27.0533 28.3285 27.914 27.5215C28.7748 26.7146 29.5817 21.4963 29.5817 21.4963C29.5817 21.4963 29.6355 20.3666 29.2589 19.7748C28.9362 19.2369 20.9743 20.8508 20.9743 20.8508Z" fill="#FF6700"/>
<path d="M18.0693 11.8129L24.0945 13.373L30.1197 11.2749V20.1513L25.0091 22.3032L18.9301 20.7431L18.0693 11.8129Z" fill="#F79420"/>
<path d="M17.6389 15.5249C17.4237 15.7939 16.1326 17.4078 18.4458 18.5375C18.4458 18.5375 19.4141 18.6451 19.8445 16.9236C20.2211 15.2559 18.2844 15.1483 17.6927 15.4711C17.6927 15.4711 17.6927 15.5249 17.6389 15.5249Z" fill="#FF6700"/>
<path d="M30.0121 15.0946C29.4741 15.6863 28.9362 16.6547 30.1197 17.4078C30.4425 17.623 30.8729 17.623 31.1956 17.4616C31.4646 17.3002 31.7336 16.9775 31.7874 16.4395C31.8412 15.525 31.9488 15.256 31.357 14.8794C30.8729 14.6104 30.3349 14.718 30.0121 15.0946Z" fill="#FF6700"/>
<path d="M22.3443 7.18795C22.4591 7.05158 22.3311 6.75487 22.0583 6.52522C21.7856 6.29558 21.4714 6.21997 21.3566 6.35635C21.2418 6.49272 21.3698 6.78943 21.6425 7.01908C21.9153 7.24872 22.2295 7.32433 22.3443 7.18795Z" fill="#FAAF41"/>
<path d="M24.4173 6.64839C24.5955 6.64839 24.74 6.31119 24.74 5.89524C24.74 5.47929 24.5955 5.14209 24.4173 5.14209C24.239 5.14209 24.0945 5.47929 24.0945 5.89524C24.0945 6.31119 24.239 6.64839 24.4173 6.64839Z" fill="#FAAF41"/>
<path d="M27.4645 6.9682C27.76 6.71942 27.9064 6.4072 27.7916 6.27082C27.6768 6.13445 27.3442 6.22557 27.0487 6.47435C26.7532 6.72313 26.6068 7.03536 26.7216 7.17173C26.8364 7.3081 27.169 7.21698 27.4645 6.9682Z" fill="#FAAF41"/>
<path d="M24.0945 13.373L25.009 22.3033" stroke="#FF6700" stroke-miterlimit="10"/>
</svg>
