<svg xmlns="http://www.w3.org/2000/svg" viewBox="0 0 45.31 160.03"><defs><style>.cls-1,.cls-2{stroke:#000;stroke-miterlimit:10;}.cls-2{fill:none;stroke-linecap:round;stroke-width:2px;}</style></defs><title>Asset 16</title><g id="Layer_2" data-name="Layer 2"><g id="Layer_1-2" data-name="Layer 1"><path class="cls-1" d="M32.75,24.21l3.33-.82a2.59,2.59,0,0,0,.51-.18s3.48-.37,4.25-1.91h0V18.84a3,3,0,0,0-1.62-2.65l-.6-.3a3,3,0,0,0-1.28-.32h-.68a3,3,0,0,1-2.9-3h0v-8a3,3,0,0,0-.8-2L31.91,1.44A3,3,0,0,0,29.75.5H15.06a2.93,2.93,0,0,0-2,.74L11.64,2.52a3,3,0,0,0-1,2.22v3.4c0,.06,0,.13,0,.2l.24,3.5a3,3,0,0,1-3,3.17H6.35a3,3,0,0,0-2.66,1.67l-.34.69a3,3,0,0,0,.18,2.92L4,21a2.93,2.93,0,0,0,1.47,1.17l5.68,2.08Z"/><ellipse class="cls-1" cx="22.66" cy="26.63" rx="12.1" ry="14.95"/><path class="cls-1" d="M44.81,66.63a22.16,22.16,0,0,0-44.31,0Z"/><rect y="66.77" width="45.31" height="70.1"/><polygon points="35.55 136.87 32.6 160.03 13.98 160.03 9.79 136.87 35.55 136.87"/><path class="cls-2" d="M9.79,20.49S7.3,37.7,8.79,44.27"/><path class="cls-2" d="M35.55,20.49s2.49,17.21,1,23.78"/></g></g></svg>