<svg xmlns="http://www.w3.org/2000/svg" viewBox="0 0 583.48 619.1"><defs><style>.cls-1{fill:none;stroke:#16c7ff;stroke-linecap:round;stroke-miterlimit:10;stroke-width:15px;}</style></defs><title>Asset 34new</title><g id="Layer_2" data-name="Layer 2"><g id="Layer_1-2" data-name="Layer 1"><path class="cls-1" d="M302,49,275.57,61.13C281.29,224.67,66.11,351,66.11,351l56.5,123.87,27.82-10.76L177,611.23S281.59,615,291,598.21c0,0,9.36-16.85,5.63-30s-16.85-9.38-20.56-22.46,9.36-16.86,5.63-30-16.84-9.37-20.59-22.48,9.39-16.83,5.65-30c-1.23-4.31-5.14-12.56-9.78-21.62,84.63-16.28,141.87-37.54,198.78,11.46l26.16-12"/><path class="cls-1" d="M9.5,390.17C4,404.92,10.72,429,19,447S39.77,486.44,54.53,492s35-16,35-16L43.35,374.75S15,375.44,9.5,390.17Z"/><path class="cls-1" d="M575.84,400.26c-5.31,14.29-65.37,30-65.37,30L330.57,38S381.64,2.74,395.94,8c7.14,2.66,59.18,94.51,103,190.11S578.51,393.1,575.84,400.26Z"/></g></g></svg>