<svg xmlns="http://www.w3.org/2000/svg" viewBox="0 0 550.48 602.1"><defs><style>.cls-1{fill:#16c7ff;}</style></defs><title>Asset 33new</title><g id="Layer_2" data-name="Layer 2"><g id="Layer_1-2" data-name="Layer 1"><path class="cls-1" d="M285.46,39.52,259.07,51.63C264.79,215.17,49.61,341.54,49.61,341.54l56.5,123.87,27.82-10.76,26.61,147.08s104.55,3.81,113.92-13c0,0,9.36-16.85,5.63-30s-16.85-9.38-20.56-22.46,9.36-16.86,5.63-30-16.84-9.37-20.59-22.48,9.39-16.83,5.65-30c-1.23-4.31-5.14-12.56-9.78-21.62,84.63-16.28,141.87-37.54,198.78,11.46l26.16-12"/><path class="cls-1" d="M2,376.67c-5.5,14.75,1.22,38.8,9.5,56.83S32.27,472.94,47,478.45s35-16,35-16L35.85,361.25S7.51,361.94,2,376.67Z"/><path class="cls-1" d="M550.34,392.76c-5.31,14.29-65.37,30-65.37,30L305.07,30.53s51.07-35.29,65.37-30c7.14,2.66,59.18,94.51,103,190.11S553,385.6,550.34,392.76Z"/></g></g></svg>