<svg xmlns="http://www.w3.org/2000/svg" viewBox="0 0 96.67 185.11"><defs><style>.cls-1{fill:#16c7ff;}</style></defs><title>Asset 36new</title><g id="Layer_2" data-name="Layer 2"><g id="Layer_1-2" data-name="Layer 1"><path class="cls-1" d="M38.58,185.11V163.43a87.39,87.39,0,0,1-19.94-5A62,62,0,0,1,0,147l16-25.14a77,77,0,0,0,15.82,9.32A38.26,38.26,0,0,0,46,134q8.23,0,11.71-2.82,3.47-3,3.47-9.32c0-2.89-1.38-5.42-4.12-7.59a56.85,56.85,0,0,0-10.41-6.72q-6.29-3.26-13.44-6.72a81.94,81.94,0,0,1-13.44-8.67,44.57,44.57,0,0,1-10.4-11.7Q5.2,73.7,5.2,64.16q0-16.47,8.67-27.31Q22.77,26,38.58,22.54V0H62.86V22.11a50.5,50.5,0,0,1,18.21,6.5A66.36,66.36,0,0,1,95.59,40.32L77.17,61.56a49.53,49.53,0,0,0-11.28-7.8,24.74,24.74,0,0,0-11.27-2.61q-6.93,0-10.4,2.39t-3.47,8.89c0,2.74,1.37,5.13,4.12,7.15a65.87,65.87,0,0,0,10.4,6.07l13.44,6.5A72.41,72.41,0,0,1,82.15,90.6a43.44,43.44,0,0,1,10.41,11.93q4.11,6.93,4.11,16.69,0,15.83-8.45,27.31Q80,158,62.86,162.13v23Z"/></g></g></svg>