<svg width="341" height="266" viewBox="0 0 341 266" fill="none" xmlns="http://www.w3.org/2000/svg">
<path d="M231.576 109.253L233.476 215.753C195.776 216.453 162.776 198.853 142.276 167.253L231.576 109.253Z" fill="#16C7FF" stroke="white" stroke-width="4" stroke-miterlimit="10"/>
<path d="M231.576 109.253L286.476 17.9528C336.876 48.2528 353.276 113.753 322.976 164.153C303.576 196.453 271.176 215.153 233.476 215.853L231.576 109.253Z" fill="#676B71" stroke="white" stroke-width="4" stroke-miterlimit="10"/>
<path d="M231.576 109.253L142.176 167.253C110.176 117.853 124.176 51.9527 173.476 19.8527C208.976 -3.24728 250.076 -3.94728 286.376 17.8527L231.576 109.253Z" fill="#FF6700" stroke="white" stroke-width="4" stroke-miterlimit="10"/>
<path d="M5.998 35V32.416H1.323V30.699L5.267 24.205H8.327V30.512H9.568V32.416H8.327V35H5.998ZM3.72 30.512H5.998V28.761C5.998 28.4097 6.00933 28.0073 6.032 27.554C6.05467 27.0893 6.07733 26.687 6.1 26.347H6.032C5.896 26.6417 5.75433 26.942 5.607 27.248C5.45967 27.554 5.30667 27.86 5.148 28.166L3.72 30.512ZM14.2824 35.204C13.3984 35.204 12.6504 35.068 12.0384 34.796C11.4264 34.5127 10.9221 34.1387 10.5254 33.674L11.6814 32.093C12.0101 32.4103 12.3671 32.671 12.7524 32.875C13.1491 33.079 13.5798 33.181 14.0444 33.181C14.5771 33.181 15.0021 33.0733 15.3194 32.858C15.6368 32.6313 15.7954 32.314 15.7954 31.906C15.7954 31.668 15.7501 31.4527 15.6594 31.26C15.5801 31.0673 15.4328 30.9087 15.2174 30.784C15.0021 30.648 14.7074 30.546 14.3334 30.478C13.9594 30.3987 13.4778 30.359 12.8884 30.359V28.591C13.3758 28.591 13.7781 28.557 14.0954 28.489C14.4241 28.421 14.6848 28.3247 14.8774 28.2C15.0814 28.064 15.2231 27.911 15.3024 27.741C15.3931 27.5597 15.4384 27.3613 15.4384 27.146C15.4384 26.772 15.3251 26.483 15.0984 26.279C14.8718 26.0637 14.5431 25.956 14.1124 25.956C13.7271 25.956 13.3758 26.041 13.0584 26.211C12.7524 26.381 12.4294 26.6133 12.0894 26.908L10.8314 25.378C11.3301 24.9473 11.8514 24.613 12.3954 24.375C12.9508 24.1257 13.5628 24.001 14.2314 24.001C14.7868 24.001 15.2911 24.069 15.7444 24.205C16.2091 24.3297 16.6001 24.5223 16.9174 24.783C17.2461 25.0323 17.5011 25.3383 17.6824 25.701C17.8638 26.0637 17.9544 26.483 17.9544 26.959C17.9544 27.5257 17.7958 28.0073 17.4784 28.404C17.1724 28.7893 16.7304 29.1067 16.1524 29.356V29.424C16.7758 29.6053 17.2858 29.917 17.6824 30.359C18.0904 30.7897 18.2944 31.3563 18.2944 32.059C18.2944 32.5577 18.1868 33.0053 17.9714 33.402C17.7561 33.7873 17.4671 34.116 17.1044 34.388C16.7418 34.6487 16.3168 34.8527 15.8294 35C15.3421 35.136 14.8264 35.204 14.2824 35.204ZM22.4989 30.75C22.1022 30.75 21.7339 30.6707 21.3939 30.512C21.0539 30.3533 20.7592 30.121 20.5099 29.815C20.2719 29.509 20.0849 29.1407 19.9489 28.71C19.8129 28.268 19.7449 27.7693 19.7449 27.214C19.7449 26.6587 19.8129 26.1657 19.9489 25.735C20.0849 25.3043 20.2719 24.9417 20.5099 24.647C20.7592 24.341 21.0539 24.1087 21.3939 23.95C21.7339 23.7913 22.1022 23.712 22.4989 23.712C22.8956 23.712 23.2639 23.7913 23.6039 23.95C23.9439 24.1087 24.2329 24.341 24.4709 24.647C24.7202 24.9417 24.9129 25.3043 25.0489 25.735C25.1962 26.1657 25.2699 26.6587 25.2699 27.214C25.2699 27.7693 25.1962 28.268 25.0489 28.71C24.9129 29.1407 24.7202 29.509 24.4709 29.815C24.2329 30.121 23.9439 30.3533 23.6039 30.512C23.2639 30.6707 22.8956 30.75 22.4989 30.75ZM22.4989 29.356C22.7822 29.356 23.0202 29.1973 23.2129 28.88C23.4169 28.5627 23.5189 28.0073 23.5189 27.214C23.5189 26.4207 23.4169 25.871 23.2129 25.565C23.0202 25.259 22.7822 25.106 22.4989 25.106C22.2156 25.106 21.9719 25.259 21.7679 25.565C21.5752 25.871 21.4789 26.4207 21.4789 27.214C21.4789 28.0073 21.5752 28.5627 21.7679 28.88C21.9719 29.1973 22.2156 29.356 22.4989 29.356ZM22.8729 35.204L28.8569 23.712H30.3019L24.3179 35.204H22.8729ZM30.6759 35.204C30.2792 35.204 29.9109 35.1247 29.5709 34.966C29.2309 34.8073 28.9362 34.575 28.6869 34.269C28.4489 33.963 28.2619 33.5947 28.1259 33.164C27.9899 32.722 27.9219 32.2233 27.9219 31.668C27.9219 31.1127 27.9899 30.6197 28.1259 30.189C28.2619 29.7583 28.4489 29.3957 28.6869 29.101C28.9362 28.795 29.2309 28.5627 29.5709 28.404C29.9109 28.2453 30.2792 28.166 30.6759 28.166C31.0726 28.166 31.4409 28.2453 31.7809 28.404C32.1209 28.5627 32.4099 28.795 32.6479 29.101C32.8972 29.3957 33.0899 29.7583 33.2259 30.189C33.3732 30.6197 33.4469 31.1127 33.4469 31.668C33.4469 32.2233 33.3732 32.722 33.2259 33.164C33.0899 33.5947 32.8972 33.963 32.6479 34.269C32.4099 34.575 32.1209 34.8073 31.7809 34.966C31.4409 35.1247 31.0726 35.204 30.6759 35.204ZM30.6759 33.81C30.9592 33.81 31.1972 33.6513 31.3899 33.334C31.5939 33.0167 31.6959 32.4613 31.6959 31.668C31.6959 30.8747 31.5939 30.325 31.3899 30.019C31.1972 29.713 30.9592 29.56 30.6759 29.56C30.3926 29.56 30.1489 29.713 29.9449 30.019C29.7522 30.325 29.6559 30.8747 29.6559 31.668C29.6559 32.4613 29.7522 33.0167 29.9449 33.334C30.1489 33.6513 30.3926 33.81 30.6759 33.81Z" fill="#FF6700"/>
<path d="M42.2294 35.204C41.7194 35.204 41.232 35.1077 40.7674 34.915C40.314 34.7223 39.9117 34.4447 39.5604 34.082C39.209 33.708 38.9257 33.2547 38.7104 32.722C38.5064 32.178 38.4044 31.566 38.4044 30.886C38.4044 30.1947 38.5064 29.5827 38.7104 29.05C38.9257 28.506 39.209 28.047 39.5604 27.673C39.9117 27.299 40.314 27.0157 40.7674 26.823C41.232 26.6303 41.7194 26.534 42.2294 26.534C42.7394 26.534 43.221 26.6303 43.6744 26.823C44.139 27.0157 44.5471 27.299 44.8984 27.673C45.2497 28.047 45.5274 28.506 45.7314 29.05C45.9467 29.5827 46.0544 30.1947 46.0544 30.886C46.0544 31.566 45.9467 32.178 45.7314 32.722C45.5274 33.2547 45.2497 33.708 44.8984 34.082C44.5471 34.4447 44.139 34.7223 43.6744 34.915C43.221 35.1077 42.7394 35.204 42.2294 35.204ZM42.2294 34.048C42.5807 34.048 42.9037 33.9743 43.1984 33.827C43.493 33.6683 43.7424 33.453 43.9464 33.181C44.1617 32.8977 44.3261 32.5633 44.4394 32.178C44.5527 31.7927 44.6094 31.362 44.6094 30.886C44.6094 30.41 44.5527 29.9793 44.4394 29.594C44.3261 29.1973 44.1617 28.8573 43.9464 28.574C43.7424 28.2907 43.493 28.0753 43.1984 27.928C42.9037 27.7693 42.5807 27.69 42.2294 27.69C41.8781 27.69 41.555 27.7693 41.2604 27.928C40.9657 28.0753 40.7107 28.2907 40.4954 28.574C40.2914 28.8573 40.1327 29.1973 40.0194 29.594C39.906 29.9793 39.8494 30.41 39.8494 30.886C39.8494 31.362 39.906 31.7927 40.0194 32.178C40.1327 32.5633 40.2914 32.8977 40.4954 33.181C40.7107 33.453 40.9657 33.6683 41.2604 33.827C41.555 33.9743 41.8781 34.048 42.2294 34.048ZM48.6382 35V27.877H47.5162V26.823L48.6382 26.738V25.429C48.6382 24.579 48.8309 23.9103 49.2162 23.423C49.6129 22.9357 50.2249 22.692 51.0522 22.692C51.3129 22.692 51.5566 22.7203 51.7832 22.777C52.0212 22.8223 52.2366 22.8847 52.4292 22.964L52.1232 24.035C51.8172 23.899 51.5056 23.831 51.1882 23.831C50.4176 23.831 50.0322 24.3637 50.0322 25.429V26.738H51.7832V27.877H50.0322V35H48.6382ZM57.2434 35V23.848H58.6544V28.523H63.8394V23.848H65.2674V35H63.8394V29.747H58.6544V35H57.2434ZM70.2713 35.204C69.5799 35.204 69.0019 35 68.5373 34.592C68.0839 34.184 67.8573 33.606 67.8573 32.858C67.8573 31.9513 68.2596 31.26 69.0643 30.784C69.8689 30.2967 71.1553 29.9567 72.9233 29.764C72.9233 29.5033 72.8949 29.2483 72.8383 28.999C72.7929 28.7497 72.7079 28.5287 72.5833 28.336C72.4586 28.1433 72.2829 27.9903 72.0563 27.877C71.8409 27.7523 71.5633 27.69 71.2233 27.69C70.7473 27.69 70.2996 27.7807 69.8803 27.962C69.4609 28.1433 69.0869 28.3473 68.7583 28.574L68.2143 27.605C68.5996 27.3557 69.0699 27.1177 69.6253 26.891C70.1806 26.653 70.7926 26.534 71.4613 26.534C72.4699 26.534 73.2009 26.8457 73.6543 27.469C74.1076 28.081 74.3343 28.9027 74.3343 29.934V35H73.1783L73.0593 34.014H73.0083C72.6116 34.3427 72.1866 34.626 71.7333 34.864C71.2799 35.0907 70.7926 35.204 70.2713 35.204ZM70.6793 34.082C71.0759 34.082 71.4499 33.9913 71.8013 33.81C72.1526 33.6173 72.5266 33.3397 72.9233 32.977V30.682C72.2319 30.7727 71.6483 30.8803 71.1723 31.005C70.7076 31.1297 70.3279 31.277 70.0333 31.447C69.7499 31.617 69.5403 31.8153 69.4043 32.042C69.2796 32.2573 69.2173 32.4953 69.2173 32.756C69.2173 33.232 69.3589 33.572 69.6423 33.776C69.9256 33.98 70.2713 34.082 70.6793 34.082ZM79.2627 35.204C78.6734 35.204 78.1124 35.0963 77.5797 34.881C77.047 34.6657 76.5824 34.3937 76.1857 34.065L76.8827 33.13C77.2454 33.4247 77.6137 33.6627 77.9877 33.844C78.373 34.0253 78.815 34.116 79.3137 34.116C79.8577 34.116 80.2657 33.9913 80.5377 33.742C80.8097 33.4927 80.9457 33.1867 80.9457 32.824C80.9457 32.6087 80.889 32.4217 80.7757 32.263C80.6624 32.1043 80.515 31.9683 80.3337 31.855C80.1637 31.7303 79.9654 31.6227 79.7387 31.532C79.512 31.4413 79.2854 31.3507 79.0587 31.26C78.764 31.158 78.4694 31.0447 78.1747 30.92C77.88 30.784 77.6137 30.6253 77.3757 30.444C77.149 30.2513 76.962 30.0303 76.8147 29.781C76.6674 29.5317 76.5937 29.2313 76.5937 28.88C76.5937 28.5513 76.656 28.2453 76.7807 27.962C76.9167 27.6673 77.1037 27.418 77.3417 27.214C77.591 26.9987 77.8914 26.8343 78.2427 26.721C78.594 26.5963 78.9907 26.534 79.4327 26.534C79.954 26.534 80.43 26.6247 80.8607 26.806C81.3027 26.9873 81.6824 27.2083 81.9997 27.469L81.3367 28.353C81.0534 28.1377 80.7587 27.962 80.4527 27.826C80.1467 27.69 79.8124 27.622 79.4497 27.622C78.9284 27.622 78.543 27.741 78.2937 27.979C78.0557 28.217 77.9367 28.4947 77.9367 28.812C77.9367 29.0047 77.9877 29.1747 78.0897 29.322C78.1917 29.458 78.3277 29.5827 78.4977 29.696C78.6677 29.798 78.8604 29.8943 79.0757 29.985C79.3024 30.0643 79.5347 30.1493 79.7727 30.24C80.0674 30.3533 80.362 30.4723 80.6567 30.597C80.9627 30.7217 81.2347 30.8803 81.4727 31.073C81.7107 31.2543 81.9034 31.481 82.0507 31.753C82.2094 32.025 82.2887 32.3537 82.2887 32.739C82.2887 33.079 82.2207 33.3963 82.0847 33.691C81.96 33.9857 81.7674 34.2463 81.5067 34.473C81.2574 34.6997 80.94 34.8753 80.5547 35C80.1807 35.136 79.75 35.204 79.2627 35.204ZM84.3958 35V26.738H85.7898V35H84.3958ZM85.1098 25.038C84.8378 25.038 84.6054 24.953 84.4128 24.783C84.2314 24.613 84.1408 24.3977 84.1408 24.137C84.1408 23.865 84.2314 23.6497 84.4128 23.491C84.6054 23.321 84.8378 23.236 85.1098 23.236C85.3818 23.236 85.6084 23.321 85.7898 23.491C85.9824 23.6497 86.0788 23.865 86.0788 24.137C86.0788 24.3977 85.9824 24.613 85.7898 24.783C85.6084 24.953 85.3818 25.038 85.1098 25.038ZM91.5714 35.204C90.5287 35.204 89.6957 34.83 89.0724 34.082C88.4604 33.334 88.1544 32.2687 88.1544 30.886C88.1544 30.2173 88.2507 29.6167 88.4434 29.084C88.6474 28.54 88.9137 28.081 89.2424 27.707C89.571 27.333 89.9507 27.044 90.3814 26.84C90.812 26.636 91.2654 26.534 91.7414 26.534C92.2174 26.534 92.631 26.619 92.9824 26.789C93.3337 26.959 93.6907 27.1913 94.0534 27.486L93.9854 26.075V22.896H95.3964V35H94.2404L94.1214 34.031H94.0704C93.7417 34.3483 93.362 34.626 92.9314 34.864C92.512 35.0907 92.0587 35.204 91.5714 35.204ZM91.8774 34.031C92.2627 34.031 92.6254 33.9403 92.9654 33.759C93.3054 33.5663 93.6454 33.2773 93.9854 32.892V28.574C93.634 28.2567 93.294 28.0357 92.9654 27.911C92.648 27.775 92.3194 27.707 91.9794 27.707C91.6507 27.707 91.339 27.7863 91.0444 27.945C90.761 28.0923 90.5117 28.3077 90.2964 28.591C90.081 28.863 89.911 29.1917 89.7864 29.577C89.6617 29.9623 89.5994 30.393 89.5994 30.869C89.5994 31.8663 89.7977 32.6427 90.1944 33.198C90.591 33.7533 91.152 34.031 91.8774 34.031ZM98.349 35V26.738H99.743V35H98.349ZM99.063 25.038C98.791 25.038 98.5587 24.953 98.366 24.783C98.1847 24.613 98.094 24.3977 98.094 24.137C98.094 23.865 98.1847 23.6497 98.366 23.491C98.5587 23.321 98.791 23.236 99.063 23.236C99.335 23.236 99.5617 23.321 99.743 23.491C99.9357 23.6497 100.032 23.865 100.032 24.137C100.032 24.3977 99.9357 24.613 99.743 24.783C99.5617 24.953 99.335 25.038 99.063 25.038ZM105.967 35.204C105.423 35.204 104.913 35.1077 104.437 34.915C103.961 34.7223 103.547 34.4447 103.196 34.082C102.856 33.708 102.584 33.2547 102.38 32.722C102.187 32.178 102.091 31.566 102.091 30.886C102.091 30.1947 102.198 29.5827 102.414 29.05C102.629 28.506 102.918 28.047 103.281 27.673C103.643 27.299 104.063 27.0157 104.539 26.823C105.026 26.6303 105.536 26.534 106.069 26.534C106.613 26.534 107.077 26.6303 107.463 26.823C107.848 27.0157 108.188 27.2423 108.483 27.503L107.769 28.421C107.531 28.2057 107.276 28.03 107.004 27.894C106.743 27.758 106.448 27.69 106.12 27.69C105.746 27.69 105.4 27.7693 105.083 27.928C104.765 28.0753 104.493 28.2907 104.267 28.574C104.04 28.8573 103.859 29.1973 103.723 29.594C103.598 29.9793 103.536 30.41 103.536 30.886C103.536 31.362 103.598 31.7927 103.723 32.178C103.847 32.5633 104.017 32.8977 104.233 33.181C104.459 33.453 104.731 33.6683 105.049 33.827C105.366 33.9743 105.712 34.048 106.086 34.048C106.471 34.048 106.822 33.9687 107.14 33.81C107.468 33.64 107.763 33.4417 108.024 33.215L108.636 34.15C108.262 34.4787 107.848 34.7393 107.395 34.932C106.941 35.1133 106.465 35.204 105.967 35.204ZM2.632 56V48.877H1.51V47.823L2.632 47.738V46.429C2.632 45.579 2.82467 44.9103 3.21 44.423C3.60667 43.9357 4.21867 43.692 5.046 43.692C5.30667 43.692 5.55033 43.7203 5.777 43.777C6.015 43.8223 6.23033 43.8847 6.423 43.964L6.117 45.035C5.811 44.899 5.49933 44.831 5.182 44.831C4.41133 44.831 4.026 45.3637 4.026 46.429V47.738H5.777V48.877H4.026V56H2.632ZM9.09984 56.204C8.4085 56.204 7.8305 56 7.36584 55.592C6.9125 55.184 6.68584 54.606 6.68584 53.858C6.68584 52.9513 7.08817 52.26 7.89284 51.784C8.6975 51.2967 9.98384 50.9567 11.7518 50.764C11.7518 50.5033 11.7235 50.2483 11.6668 49.999C11.6215 49.7497 11.5365 49.5287 11.4118 49.336C11.2872 49.1433 11.1115 48.9903 10.8848 48.877C10.6695 48.7523 10.3918 48.69 10.0518 48.69C9.57584 48.69 9.12817 48.7807 8.70884 48.962C8.2895 49.1433 7.9155 49.3473 7.58684 49.574L7.04284 48.605C7.42817 48.3557 7.8985 48.1177 8.45384 47.891C9.00917 47.653 9.62117 47.534 10.2898 47.534C11.2985 47.534 12.0295 47.8457 12.4828 48.469C12.9362 49.081 13.1628 49.9027 13.1628 50.934V56H12.0068L11.8878 55.014H11.8368C11.4402 55.3427 11.0152 55.626 10.5618 55.864C10.1085 56.0907 9.62117 56.204 9.09984 56.204ZM9.50784 55.082C9.9045 55.082 10.2785 54.9913 10.6298 54.81C10.9812 54.6173 11.3552 54.3397 11.7518 53.977V51.682C11.0605 51.7727 10.4768 51.8803 10.0008 52.005C9.53617 52.1297 9.1565 52.277 8.86184 52.447C8.5785 52.617 8.36884 52.8153 8.23284 53.042C8.10817 53.2573 8.04584 53.4953 8.04584 53.756C8.04584 54.232 8.1875 54.572 8.47084 54.776C8.75417 54.98 9.09984 55.082 9.50784 55.082ZM15.9322 56V47.738H17.0882L17.2072 48.928H17.2582C17.6209 48.5313 18.0119 48.2027 18.4312 47.942C18.8619 47.67 19.3266 47.534 19.8252 47.534C20.4599 47.534 20.9529 47.6757 21.3042 47.959C21.6669 48.231 21.9332 48.6163 22.1032 49.115C22.5339 48.639 22.9646 48.2593 23.3952 47.976C23.8372 47.6813 24.3132 47.534 24.8232 47.534C25.6732 47.534 26.3022 47.806 26.7102 48.35C27.1296 48.894 27.3392 49.6987 27.3392 50.764V56H25.9452V50.951C25.9452 50.169 25.8206 49.608 25.5712 49.268C25.3219 48.9167 24.9366 48.741 24.4152 48.741C23.7919 48.741 23.1006 49.166 22.3412 50.016V56H20.9472V50.951C20.9472 50.169 20.8226 49.608 20.5732 49.268C20.3239 48.9167 19.9329 48.741 19.4002 48.741C18.7769 48.741 18.0856 49.166 17.3262 50.016V56H15.9322ZM30.197 56V47.738H31.591V56H30.197ZM30.911 46.038C30.639 46.038 30.4066 45.953 30.214 45.783C30.0326 45.613 29.942 45.3977 29.942 45.137C29.942 44.865 30.0326 44.6497 30.214 44.491C30.4066 44.321 30.639 44.236 30.911 44.236C31.183 44.236 31.4096 44.321 31.591 44.491C31.7836 44.6497 31.88 44.865 31.88 45.137C31.88 45.3977 31.7836 45.613 31.591 45.783C31.4096 45.953 31.183 46.038 30.911 46.038ZM36.0296 56.204C35.4969 56.204 35.1172 56.0453 34.8906 55.728C34.6639 55.4107 34.5506 54.946 34.5506 54.334V43.896H35.9446V54.436C35.9446 54.6627 35.9842 54.8213 36.0636 54.912C36.1429 55.0027 36.2336 55.048 36.3356 55.048C36.3809 55.048 36.4206 55.048 36.4546 55.048C36.4999 55.048 36.5622 55.0367 36.6416 55.014L36.8286 56.068C36.7379 56.1133 36.6302 56.1473 36.5056 56.17C36.3809 56.1927 36.2222 56.204 36.0296 56.204ZM39.0536 56V47.738H40.4476V56H39.0536ZM39.7676 46.038C39.4956 46.038 39.2632 45.953 39.0706 45.783C38.8892 45.613 38.7986 45.3977 38.7986 45.137C38.7986 44.865 38.8892 44.6497 39.0706 44.491C39.2632 44.321 39.4956 44.236 39.7676 44.236C40.0396 44.236 40.2662 44.321 40.4476 44.491C40.6402 44.6497 40.7366 44.865 40.7366 45.137C40.7366 45.3977 40.6402 45.613 40.4476 45.783C40.2662 45.953 40.0396 46.038 39.7676 46.038ZM46.7562 56.204C46.2008 56.204 45.6795 56.1077 45.1922 55.915C44.7162 55.711 44.2968 55.4277 43.9342 55.065C43.5828 54.691 43.3052 54.2377 43.1012 53.705C42.8972 53.1723 42.7952 52.566 42.7952 51.886C42.7952 51.206 42.8972 50.5997 43.1012 50.067C43.3165 49.523 43.5942 49.064 43.9342 48.69C44.2855 48.316 44.6822 48.0327 45.1242 47.84C45.5662 47.636 46.0252 47.534 46.5012 47.534C47.0225 47.534 47.4872 47.6247 47.8952 47.806C48.3145 47.9873 48.6602 48.248 48.9322 48.588C49.2155 48.928 49.4308 49.336 49.5782 49.812C49.7255 50.288 49.7992 50.8207 49.7992 51.41C49.7992 51.5573 49.7935 51.7047 49.7822 51.852C49.7822 51.988 49.7708 52.107 49.7482 52.209H44.1722C44.2288 53.093 44.5008 53.7957 44.9882 54.317C45.4868 54.827 46.1328 55.082 46.9262 55.082C47.3228 55.082 47.6855 55.0253 48.0142 54.912C48.3542 54.7873 48.6772 54.6287 48.9832 54.436L49.4762 55.354C49.1135 55.5807 48.7112 55.779 48.2692 55.949C47.8272 56.119 47.3228 56.204 46.7562 56.204ZM44.1552 51.206H48.5752C48.5752 50.3673 48.3938 49.7327 48.0312 49.302C47.6798 48.86 47.1812 48.639 46.5352 48.639C46.2405 48.639 45.9572 48.6957 45.6852 48.809C45.4245 48.9223 45.1865 49.0923 44.9712 49.319C44.7558 49.5343 44.5745 49.8007 44.4272 50.118C44.2912 50.4353 44.2005 50.798 44.1552 51.206ZM54.1698 56.204C53.5804 56.204 53.0194 56.0963 52.4868 55.881C51.9541 55.6657 51.4894 55.3937 51.0928 55.065L51.7898 54.13C52.1524 54.4247 52.5208 54.6627 52.8948 54.844C53.2801 55.0253 53.7221 55.116 54.2208 55.116C54.7648 55.116 55.1728 54.9913 55.4448 54.742C55.7168 54.4927 55.8528 54.1867 55.8528 53.824C55.8528 53.6087 55.7961 53.4217 55.6828 53.263C55.5694 53.1043 55.4221 52.9683 55.2408 52.855C55.0708 52.7303 54.8724 52.6227 54.6458 52.532C54.4191 52.4413 54.1924 52.3507 53.9658 52.26C53.6711 52.158 53.3764 52.0447 53.0818 51.92C52.7871 51.784 52.5208 51.6253 52.2828 51.444C52.0561 51.2513 51.8691 51.0303 51.7218 50.781C51.5744 50.5317 51.5008 50.2313 51.5008 49.88C51.5008 49.5513 51.5631 49.2453 51.6878 48.962C51.8238 48.6673 52.0108 48.418 52.2488 48.214C52.4981 47.9987 52.7984 47.8343 53.1498 47.721C53.5011 47.5963 53.8978 47.534 54.3398 47.534C54.8611 47.534 55.3371 47.6247 55.7678 47.806C56.2098 47.9873 56.5894 48.2083 56.9068 48.469L56.2438 49.353C55.9604 49.1377 55.6658 48.962 55.3598 48.826C55.0538 48.69 54.7194 48.622 54.3568 48.622C53.8354 48.622 53.4501 48.741 53.2008 48.979C52.9628 49.217 52.8438 49.4947 52.8438 49.812C52.8438 50.0047 52.8948 50.1747 52.9968 50.322C53.0988 50.458 53.2348 50.5827 53.4048 50.696C53.5748 50.798 53.7674 50.8943 53.9828 50.985C54.2094 51.0643 54.4418 51.1493 54.6798 51.24C54.9744 51.3533 55.2691 51.4723 55.5638 51.597C55.8698 51.7217 56.1418 51.8803 56.3798 52.073C56.6178 52.2543 56.8104 52.481 56.9578 52.753C57.1164 53.025 57.1958 53.3537 57.1958 53.739C57.1958 54.079 57.1278 54.3963 56.9918 54.691C56.8671 54.9857 56.6744 55.2463 56.4138 55.473C56.1644 55.6997 55.8471 55.8753 55.4618 56C55.0878 56.136 54.6571 56.204 54.1698 56.204ZM62.8761 56V47.738H64.2701V56H62.8761ZM63.5901 46.038C63.3181 46.038 63.0858 45.953 62.8931 45.783C62.7118 45.613 62.6211 45.3977 62.6211 45.137C62.6211 44.865 62.7118 44.6497 62.8931 44.491C63.0858 44.321 63.3181 44.236 63.5901 44.236C63.8621 44.236 64.0888 44.321 64.2701 44.491C64.4628 44.6497 64.5591 44.865 64.5591 45.137C64.5591 45.3977 64.4628 45.613 64.2701 45.783C64.0888 45.953 63.8621 46.038 63.5901 46.038ZM67.2297 56V47.738H68.3857L68.5047 48.928H68.5557C68.9524 48.5313 69.3661 48.2027 69.7967 47.942C70.2387 47.67 70.7487 47.534 71.3267 47.534C72.1994 47.534 72.8341 47.806 73.2307 48.35C73.6387 48.894 73.8427 49.6987 73.8427 50.764V56H72.4487V50.951C72.4487 50.169 72.3241 49.608 72.0747 49.268C71.8254 48.9167 71.4287 48.741 70.8847 48.741C70.4541 48.741 70.0744 48.8487 69.7457 49.064C69.4171 49.2793 69.0431 49.5967 68.6237 50.016V56H67.2297ZM80.4059 56V44.848H81.8679L85.8969 51.852L87.1039 54.164H87.1719C87.1379 53.5973 87.0983 53.0137 87.0529 52.413C87.0189 51.801 87.0019 51.2003 87.0019 50.611V44.848H88.3449V56H86.8829L82.8369 48.979L81.6299 46.684H81.5619C81.6073 47.2507 81.6469 47.8287 81.6809 48.418C81.7263 48.996 81.7489 49.5797 81.7489 50.169V56H80.4059ZM94.7958 56.204C94.2404 56.204 93.7191 56.1077 93.2318 55.915C92.7558 55.711 92.3364 55.4277 91.9738 55.065C91.6224 54.691 91.3448 54.2377 91.1408 53.705C90.9368 53.1723 90.8348 52.566 90.8348 51.886C90.8348 51.206 90.9368 50.5997 91.1408 50.067C91.3561 49.523 91.6338 49.064 91.9738 48.69C92.3251 48.316 92.7218 48.0327 93.1638 47.84C93.6058 47.636 94.0648 47.534 94.5408 47.534C95.0621 47.534 95.5268 47.6247 95.9348 47.806C96.3541 47.9873 96.6998 48.248 96.9718 48.588C97.2551 48.928 97.4704 49.336 97.6178 49.812C97.7651 50.288 97.8388 50.8207 97.8388 51.41C97.8388 51.5573 97.8331 51.7047 97.8218 51.852C97.8218 51.988 97.8104 52.107 97.7878 52.209H92.2118C92.2684 53.093 92.5404 53.7957 93.0278 54.317C93.5264 54.827 94.1724 55.082 94.9658 55.082C95.3624 55.082 95.7251 55.0253 96.0538 54.912C96.3938 54.7873 96.7168 54.6287 97.0228 54.436L97.5158 55.354C97.1531 55.5807 96.7508 55.779 96.3088 55.949C95.8668 56.119 95.3624 56.204 94.7958 56.204ZM92.1948 51.206H96.6148C96.6148 50.3673 96.4334 49.7327 96.0708 49.302C95.7194 48.86 95.2208 48.639 94.5748 48.639C94.2801 48.639 93.9968 48.6957 93.7248 48.809C93.4641 48.9223 93.2261 49.0923 93.0108 49.319C92.7954 49.5343 92.6141 49.8007 92.4668 50.118C92.3308 50.4353 92.2401 50.798 92.1948 51.206ZM101.442 56L99.1474 47.738H100.575L101.799 52.515C101.89 52.9117 101.975 53.297 102.054 53.671C102.134 54.045 102.213 54.4247 102.292 54.81H102.36C102.451 54.4247 102.542 54.045 102.632 53.671C102.723 53.2857 102.819 52.9003 102.921 52.515L104.196 47.738H105.556L106.848 52.515C106.95 52.9117 107.047 53.297 107.137 53.671C107.239 54.045 107.336 54.4247 107.426 54.81H107.494C107.585 54.4247 107.67 54.045 107.749 53.671C107.829 53.297 107.914 52.9117 108.004 52.515L109.211 47.738H110.537L108.327 56H106.627L105.437 51.563C105.335 51.1663 105.239 50.7753 105.148 50.39C105.069 50.0047 104.978 49.6023 104.876 49.183H104.808C104.718 49.6023 104.627 50.0103 104.536 50.407C104.446 50.7923 104.344 51.1833 104.23 51.58L103.074 56H101.442ZM4.332 77V72.682L0.983 65.848H2.496L3.941 68.993C4.12233 69.401 4.298 69.8033 4.468 70.2C4.638 70.5967 4.81933 71.0047 5.012 71.424H5.08C5.27267 71.0047 5.46533 70.5967 5.658 70.2C5.85067 69.8033 6.032 69.401 6.202 68.993L7.63 65.848H9.109L5.76 72.682V77H4.332ZM13.1647 77.204C12.6547 77.204 12.1674 77.1077 11.7027 76.915C11.2494 76.7223 10.847 76.4447 10.4957 76.082C10.1444 75.708 9.86103 75.2547 9.6457 74.722C9.4417 74.178 9.3397 73.566 9.3397 72.886C9.3397 72.1947 9.4417 71.5827 9.6457 71.05C9.86103 70.506 10.1444 70.047 10.4957 69.673C10.847 69.299 11.2494 69.0157 11.7027 68.823C12.1674 68.6303 12.6547 68.534 13.1647 68.534C13.6747 68.534 14.1564 68.6303 14.6097 68.823C15.0744 69.0157 15.4824 69.299 15.8337 69.673C16.185 70.047 16.4627 70.506 16.6667 71.05C16.882 71.5827 16.9897 72.1947 16.9897 72.886C16.9897 73.566 16.882 74.178 16.6667 74.722C16.4627 75.2547 16.185 75.708 15.8337 76.082C15.4824 76.4447 15.0744 76.7223 14.6097 76.915C14.1564 77.1077 13.6747 77.204 13.1647 77.204ZM13.1647 76.048C13.516 76.048 13.839 75.9743 14.1337 75.827C14.4284 75.6683 14.6777 75.453 14.8817 75.181C15.097 74.8977 15.2614 74.5633 15.3747 74.178C15.488 73.7927 15.5447 73.362 15.5447 72.886C15.5447 72.41 15.488 71.9793 15.3747 71.594C15.2614 71.1973 15.097 70.8573 14.8817 70.574C14.6777 70.2907 14.4284 70.0753 14.1337 69.928C13.839 69.7693 13.516 69.69 13.1647 69.69C12.8134 69.69 12.4904 69.7693 12.1957 69.928C11.901 70.0753 11.646 70.2907 11.4307 70.574C11.2267 70.8573 11.068 71.1973 10.9547 71.594C10.8414 71.9793 10.7847 72.41 10.7847 72.886C10.7847 73.362 10.8414 73.7927 10.9547 74.178C11.068 74.5633 11.2267 74.8977 11.4307 75.181C11.646 75.453 11.901 75.6683 12.1957 75.827C12.4904 75.9743 12.8134 76.048 13.1647 76.048ZM19.3356 77V68.738H20.4916L20.6106 70.234H20.6616C20.9449 69.7127 21.2849 69.299 21.6816 68.993C22.0896 68.687 22.5316 68.534 23.0076 68.534C23.3362 68.534 23.6309 68.5907 23.8916 68.704L23.6196 69.928C23.4836 69.8827 23.3589 69.8487 23.2456 69.826C23.1322 69.8033 22.9906 69.792 22.8206 69.792C22.4692 69.792 22.1009 69.9337 21.7156 70.217C21.3416 70.5003 21.0129 70.9933 20.7296 71.696V77H19.3356ZM25.3991 77V64.896H26.7761V73.09H26.8271L30.3461 68.738H31.8931L29.1221 72.053L32.2671 77H30.7371L28.3231 73.022L26.7761 74.824V77H25.3991ZM39.4634 77.204C38.7721 77.204 38.1941 77 37.7294 76.592C37.2761 76.184 37.0494 75.606 37.0494 74.858C37.0494 73.9513 37.4518 73.26 38.2564 72.784C39.0611 72.2967 40.3474 71.9567 42.1154 71.764C42.1154 71.5033 42.0871 71.2483 42.0304 70.999C41.9851 70.7497 41.9001 70.5287 41.7754 70.336C41.6508 70.1433 41.4751 69.9903 41.2484 69.877C41.0331 69.7523 40.7554 69.69 40.4154 69.69C39.9394 69.69 39.4918 69.7807 39.0724 69.962C38.6531 70.1433 38.2791 70.3473 37.9504 70.574L37.4064 69.605C37.7918 69.3557 38.2621 69.1177 38.8174 68.891C39.3728 68.653 39.9848 68.534 40.6534 68.534C41.6621 68.534 42.3931 68.8457 42.8464 69.469C43.2998 70.081 43.5264 70.9027 43.5264 71.934V77H42.3704L42.2514 76.014H42.2004C41.8038 76.3427 41.3788 76.626 40.9254 76.864C40.4721 77.0907 39.9848 77.204 39.4634 77.204ZM39.8714 76.082C40.2681 76.082 40.6421 75.9913 40.9934 75.81C41.3448 75.6173 41.7188 75.3397 42.1154 74.977V72.682C41.4241 72.7727 40.8404 72.8803 40.3644 73.005C39.8998 73.1297 39.5201 73.277 39.2254 73.447C38.9421 73.617 38.7324 73.8153 38.5964 74.042C38.4718 74.2573 38.4094 74.4953 38.4094 74.756C38.4094 75.232 38.5511 75.572 38.8344 75.776C39.1178 75.98 39.4634 76.082 39.8714 76.082ZM46.2958 77V68.738H47.4518L47.5708 70.234H47.6218C47.9052 69.7127 48.2452 69.299 48.6418 68.993C49.0498 68.687 49.4918 68.534 49.9678 68.534C50.2965 68.534 50.5912 68.5907 50.8518 68.704L50.5798 69.928C50.4438 69.8827 50.3192 69.8487 50.2058 69.826C50.0925 69.8033 49.9508 69.792 49.7808 69.792C49.4295 69.792 49.0612 69.9337 48.6758 70.217C48.3018 70.5003 47.9732 70.9933 47.6898 71.696V77H46.2958ZM55.5424 77.204C54.987 77.204 54.4657 77.1077 53.9784 76.915C53.5024 76.711 53.083 76.4277 52.7204 76.065C52.369 75.691 52.0914 75.2377 51.8874 74.705C51.6834 74.1723 51.5814 73.566 51.5814 72.886C51.5814 72.206 51.6834 71.5997 51.8874 71.067C52.1027 70.523 52.3804 70.064 52.7204 69.69C53.0717 69.316 53.4684 69.0327 53.9104 68.84C54.3524 68.636 54.8114 68.534 55.2874 68.534C55.8087 68.534 56.2734 68.6247 56.6814 68.806C57.1007 68.9873 57.4464 69.248 57.7184 69.588C58.0017 69.928 58.217 70.336 58.3644 70.812C58.5117 71.288 58.5854 71.8207 58.5854 72.41C58.5854 72.5573 58.5797 72.7047 58.5684 72.852C58.5684 72.988 58.557 73.107 58.5344 73.209H52.9584C53.015 74.093 53.287 74.7957 53.7744 75.317C54.273 75.827 54.919 76.082 55.7124 76.082C56.109 76.082 56.4717 76.0253 56.8004 75.912C57.1404 75.7873 57.4634 75.6287 57.7694 75.436L58.2624 76.354C57.8997 76.5807 57.4974 76.779 57.0554 76.949C56.6134 77.119 56.109 77.204 55.5424 77.204ZM52.9414 72.206H57.3614C57.3614 71.3673 57.18 70.7327 56.8174 70.302C56.466 69.86 55.9674 69.639 55.3214 69.639C55.0267 69.639 54.7434 69.6957 54.4714 69.809C54.2107 69.9223 53.9727 70.0923 53.7574 70.319C53.542 70.5343 53.3607 70.8007 53.2134 71.118C53.0774 71.4353 52.9867 71.798 52.9414 72.206ZM64.3703 80.485V68.738H65.5263L65.6453 69.69H65.6963C66.0703 69.3727 66.4783 69.1007 66.9203 68.874C67.3736 68.6473 67.844 68.534 68.3313 68.534C68.864 68.534 69.3343 68.636 69.7423 68.84C70.1503 69.0327 70.4903 69.316 70.7623 69.69C71.0343 70.0527 71.2383 70.4947 71.3743 71.016C71.5216 71.526 71.5953 72.104 71.5953 72.75C71.5953 73.4527 71.499 74.0817 71.3063 74.637C71.1136 75.181 70.853 75.6457 70.5243 76.031C70.1956 76.4163 69.816 76.711 69.3853 76.915C68.9546 77.1077 68.5013 77.204 68.0253 77.204C67.64 77.204 67.2546 77.119 66.8693 76.949C66.4953 76.779 66.1156 76.5467 65.7303 76.252L65.7643 77.697V80.485H64.3703ZM67.7873 76.031C68.1273 76.031 68.439 75.9573 68.7223 75.81C69.017 75.6513 69.2663 75.436 69.4703 75.164C69.6856 74.8807 69.85 74.535 69.9633 74.127C70.088 73.719 70.1503 73.26 70.1503 72.75C70.1503 72.2967 70.1106 71.883 70.0313 71.509C69.952 71.135 69.8216 70.8177 69.6403 70.557C69.4703 70.285 69.2436 70.0753 68.9603 69.928C68.6883 69.7807 68.3596 69.707 67.9743 69.707C67.623 69.707 67.266 69.8033 66.9033 69.996C66.552 70.1887 66.1723 70.4663 65.7643 70.829V75.164C66.1383 75.4813 66.501 75.708 66.8523 75.844C67.2036 75.9687 67.5153 76.031 67.7873 76.031ZM77.183 77.204C76.673 77.204 76.1856 77.1077 75.721 76.915C75.2676 76.7223 74.8653 76.4447 74.514 76.082C74.1626 75.708 73.8793 75.2547 73.664 74.722C73.46 74.178 73.358 73.566 73.358 72.886C73.358 72.1947 73.46 71.5827 73.664 71.05C73.8793 70.506 74.1626 70.047 74.514 69.673C74.8653 69.299 75.2676 69.0157 75.721 68.823C76.1856 68.6303 76.673 68.534 77.183 68.534C77.693 68.534 78.1746 68.6303 78.628 68.823C79.0926 69.0157 79.5006 69.299 79.852 69.673C80.2033 70.047 80.481 70.506 80.685 71.05C80.9003 71.5827 81.008 72.1947 81.008 72.886C81.008 73.566 80.9003 74.178 80.685 74.722C80.481 75.2547 80.2033 75.708 79.852 76.082C79.5006 76.4447 79.0926 76.7223 78.628 76.915C78.1746 77.1077 77.693 77.204 77.183 77.204ZM77.183 76.048C77.5343 76.048 77.8573 75.9743 78.152 75.827C78.4466 75.6683 78.696 75.453 78.9 75.181C79.1153 74.8977 79.2796 74.5633 79.393 74.178C79.5063 73.7927 79.563 73.362 79.563 72.886C79.563 72.41 79.5063 71.9793 79.393 71.594C79.2796 71.1973 79.1153 70.8573 78.9 70.574C78.696 70.2907 78.4466 70.0753 78.152 69.928C77.8573 69.7693 77.5343 69.69 77.183 69.69C76.8316 69.69 76.5086 69.7693 76.214 69.928C75.9193 70.0753 75.6643 70.2907 75.449 70.574C75.245 70.8573 75.0863 71.1973 74.973 71.594C74.8596 71.9793 74.803 72.41 74.803 72.886C74.803 73.362 74.8596 73.7927 74.973 74.178C75.0863 74.5633 75.245 74.8977 75.449 75.181C75.6643 75.453 75.9193 75.6683 76.214 75.827C76.5086 75.9743 76.8316 76.048 77.183 76.048ZM86.5668 77.204C86.0568 77.204 85.5695 77.1077 85.1048 76.915C84.6515 76.7223 84.2492 76.4447 83.8978 76.082C83.5465 75.708 83.2632 75.2547 83.0478 74.722C82.8438 74.178 82.7418 73.566 82.7418 72.886C82.7418 72.1947 82.8438 71.5827 83.0478 71.05C83.2632 70.506 83.5465 70.047 83.8978 69.673C84.2492 69.299 84.6515 69.0157 85.1048 68.823C85.5695 68.6303 86.0568 68.534 86.5668 68.534C87.0768 68.534 87.5585 68.6303 88.0118 68.823C88.4765 69.0157 88.8845 69.299 89.2358 69.673C89.5872 70.047 89.8648 70.506 90.0688 71.05C90.2842 71.5827 90.3918 72.1947 90.3918 72.886C90.3918 73.566 90.2842 74.178 90.0688 74.722C89.8648 75.2547 89.5872 75.708 89.2358 76.082C88.8845 76.4447 88.4765 76.7223 88.0118 76.915C87.5585 77.1077 87.0768 77.204 86.5668 77.204ZM86.5668 76.048C86.9182 76.048 87.2412 75.9743 87.5358 75.827C87.8305 75.6683 88.0798 75.453 88.2838 75.181C88.4992 74.8977 88.6635 74.5633 88.7768 74.178C88.8902 73.7927 88.9468 73.362 88.9468 72.886C88.9468 72.41 88.8902 71.9793 88.7768 71.594C88.6635 71.1973 88.4992 70.8573 88.2838 70.574C88.0798 70.2907 87.8305 70.0753 87.5358 69.928C87.2412 69.7693 86.9182 69.69 86.5668 69.69C86.2155 69.69 85.8925 69.7693 85.5978 69.928C85.3032 70.0753 85.0482 70.2907 84.8328 70.574C84.6288 70.8573 84.4702 71.1973 84.3568 71.594C84.2435 71.9793 84.1868 72.41 84.1868 72.886C84.1868 73.362 84.2435 73.7927 84.3568 74.178C84.4702 74.5633 84.6288 74.8977 84.8328 75.181C85.0482 75.453 85.3032 75.6683 85.5978 75.827C85.8925 75.9743 86.2155 76.048 86.5668 76.048ZM92.7377 77V68.738H93.8937L94.0127 70.234H94.0637C94.347 69.7127 94.687 69.299 95.0837 68.993C95.4917 68.687 95.9337 68.534 96.4097 68.534C96.7384 68.534 97.033 68.5907 97.2937 68.704L97.0217 69.928C96.8857 69.8827 96.761 69.8487 96.6477 69.826C96.5344 69.8033 96.3927 69.792 96.2227 69.792C95.8714 69.792 95.503 69.9337 95.1177 70.217C94.7437 70.5003 94.415 70.9933 94.1317 71.696V77H92.7377ZM98.5694 77.204C98.286 77.204 98.0424 77.1077 97.8384 76.915C97.6457 76.711 97.5494 76.456 97.5494 76.15C97.5494 75.8213 97.6457 75.5607 97.8384 75.368C98.0424 75.164 98.286 75.062 98.5694 75.062C98.8414 75.062 99.0737 75.164 99.2664 75.368C99.4704 75.5607 99.5724 75.8213 99.5724 76.15C99.5724 76.456 99.4704 76.711 99.2664 76.915C99.0737 77.1077 98.8414 77.204 98.5694 77.204Z" fill="black"/>
<path d="M83.451 234.761L82.924 236.461H86.273L85.746 234.761C85.542 234.138 85.3493 233.52 85.168 232.908C84.9867 232.285 84.8053 231.65 84.624 231.004H84.556C84.386 231.65 84.2103 232.285 84.029 232.908C83.8477 233.52 83.655 234.138 83.451 234.761ZM80.051 241L83.825 229.848H85.423L89.197 241H87.684L86.63 237.6H82.567L81.496 241H80.051ZM90.8111 241V232.738H91.9671L92.0861 233.928H92.1371C92.5337 233.531 92.9474 233.203 93.3781 232.942C93.8201 232.67 94.3301 232.534 94.9081 232.534C95.7807 232.534 96.4154 232.806 96.8121 233.35C97.2201 233.894 97.4241 234.699 97.4241 235.764V241H96.0301V235.951C96.0301 235.169 95.9054 234.608 95.6561 234.268C95.4067 233.917 95.0101 233.741 94.4661 233.741C94.0354 233.741 93.6557 233.849 93.3271 234.064C92.9984 234.279 92.6244 234.597 92.2051 235.016V241H90.8111ZM103.491 241.204C102.981 241.204 102.494 241.108 102.029 240.915C101.576 240.722 101.173 240.445 100.822 240.082C100.471 239.708 100.187 239.255 99.9719 238.722C99.7679 238.178 99.6659 237.566 99.6659 236.886C99.6659 236.195 99.7679 235.583 99.9719 235.05C100.187 234.506 100.471 234.047 100.822 233.673C101.173 233.299 101.576 233.016 102.029 232.823C102.494 232.63 102.981 232.534 103.491 232.534C104.001 232.534 104.483 232.63 104.936 232.823C105.401 233.016 105.809 233.299 106.16 233.673C106.511 234.047 106.789 234.506 106.993 235.05C107.208 235.583 107.316 236.195 107.316 236.886C107.316 237.566 107.208 238.178 106.993 238.722C106.789 239.255 106.511 239.708 106.16 240.082C105.809 240.445 105.401 240.722 104.936 240.915C104.483 241.108 104.001 241.204 103.491 241.204ZM103.491 240.048C103.842 240.048 104.165 239.974 104.46 239.827C104.755 239.668 105.004 239.453 105.208 239.181C105.423 238.898 105.588 238.563 105.701 238.178C105.814 237.793 105.871 237.362 105.871 236.886C105.871 236.41 105.814 235.979 105.701 235.594C105.588 235.197 105.423 234.857 105.208 234.574C105.004 234.291 104.755 234.075 104.46 233.928C104.165 233.769 103.842 233.69 103.491 233.69C103.14 233.69 102.817 233.769 102.522 233.928C102.227 234.075 101.972 234.291 101.757 234.574C101.553 234.857 101.394 235.197 101.281 235.594C101.168 235.979 101.111 236.41 101.111 236.886C101.111 237.362 101.168 237.793 101.281 238.178C101.394 238.563 101.553 238.898 101.757 239.181C101.972 239.453 102.227 239.668 102.522 239.827C102.817 239.974 103.14 240.048 103.491 240.048ZM111.981 241.204C111.539 241.204 111.165 241.136 110.859 241C110.564 240.864 110.32 240.677 110.128 240.439C109.946 240.201 109.816 239.912 109.737 239.572C109.657 239.232 109.618 238.858 109.618 238.45V233.877H108.394V232.823L109.686 232.738L109.856 230.426H111.029V232.738H113.256V233.877H111.029V238.467C111.029 238.977 111.119 239.374 111.301 239.657C111.493 239.929 111.828 240.065 112.304 240.065C112.451 240.065 112.61 240.042 112.78 239.997C112.95 239.952 113.103 239.901 113.239 239.844L113.511 240.898C113.284 240.977 113.035 241.045 112.763 241.102C112.502 241.17 112.241 241.204 111.981 241.204ZM115.294 241V228.896H116.688V232.194L116.637 233.894C117.033 233.52 117.447 233.203 117.878 232.942C118.308 232.67 118.813 232.534 119.391 232.534C120.263 232.534 120.898 232.806 121.295 233.35C121.703 233.894 121.907 234.699 121.907 235.764V241H120.513V235.951C120.513 235.169 120.388 234.608 120.139 234.268C119.889 233.917 119.493 233.741 118.949 233.741C118.518 233.741 118.138 233.849 117.81 234.064C117.481 234.279 117.107 234.597 116.688 235.016V241H115.294ZM128.06 241.204C127.504 241.204 126.983 241.108 126.496 240.915C126.02 240.711 125.6 240.428 125.238 240.065C124.886 239.691 124.609 239.238 124.405 238.705C124.201 238.172 124.099 237.566 124.099 236.886C124.099 236.206 124.201 235.6 124.405 235.067C124.62 234.523 124.898 234.064 125.238 233.69C125.589 233.316 125.986 233.033 126.428 232.84C126.87 232.636 127.329 232.534 127.805 232.534C128.326 232.534 128.791 232.625 129.199 232.806C129.618 232.987 129.964 233.248 130.236 233.588C130.519 233.928 130.734 234.336 130.882 234.812C131.029 235.288 131.103 235.821 131.103 236.41C131.103 236.557 131.097 236.705 131.086 236.852C131.086 236.988 131.074 237.107 131.052 237.209H125.476C125.532 238.093 125.804 238.796 126.292 239.317C126.79 239.827 127.436 240.082 128.23 240.082C128.626 240.082 128.989 240.025 129.318 239.912C129.658 239.787 129.981 239.629 130.287 239.436L130.78 240.354C130.417 240.581 130.015 240.779 129.573 240.949C129.131 241.119 128.626 241.204 128.06 241.204ZM125.459 236.206H129.879C129.879 235.367 129.697 234.733 129.335 234.302C128.983 233.86 128.485 233.639 127.839 233.639C127.544 233.639 127.261 233.696 126.989 233.809C126.728 233.922 126.49 234.092 126.275 234.319C126.059 234.534 125.878 234.801 125.731 235.118C125.595 235.435 125.504 235.798 125.459 236.206ZM133.314 241V232.738H134.47L134.589 234.234H134.64C134.924 233.713 135.264 233.299 135.66 232.993C136.068 232.687 136.51 232.534 136.986 232.534C137.315 232.534 137.61 232.591 137.87 232.704L137.598 233.928C137.462 233.883 137.338 233.849 137.224 233.826C137.111 233.803 136.969 233.792 136.799 233.792C136.448 233.792 136.08 233.934 135.694 234.217C135.32 234.5 134.992 234.993 134.708 235.696V241H133.314ZM83.298 262.204C82.6067 262.204 82.0287 262 81.564 261.592C81.1107 261.184 80.884 260.606 80.884 259.858C80.884 258.951 81.2863 258.26 82.091 257.784C82.8957 257.297 84.182 256.957 85.95 256.764C85.95 256.503 85.9217 256.248 85.865 255.999C85.8197 255.75 85.7347 255.529 85.61 255.336C85.4853 255.143 85.3097 254.99 85.083 254.877C84.8677 254.752 84.59 254.69 84.25 254.69C83.774 254.69 83.3263 254.781 82.907 254.962C82.4877 255.143 82.1137 255.347 81.785 255.574L81.241 254.605C81.6263 254.356 82.0967 254.118 82.652 253.891C83.2073 253.653 83.8193 253.534 84.488 253.534C85.4967 253.534 86.2277 253.846 86.681 254.469C87.1343 255.081 87.361 255.903 87.361 256.934V262H86.205L86.086 261.014H86.035C85.6383 261.343 85.2133 261.626 84.76 261.864C84.3067 262.091 83.8193 262.204 83.298 262.204ZM83.706 261.082C84.1027 261.082 84.4767 260.991 84.828 260.81C85.1793 260.617 85.5533 260.34 85.95 259.977V257.682C85.2587 257.773 84.675 257.88 84.199 258.005C83.7343 258.13 83.3547 258.277 83.06 258.447C82.7767 258.617 82.567 258.815 82.431 259.042C82.3063 259.257 82.244 259.495 82.244 259.756C82.244 260.232 82.3857 260.572 82.669 260.776C82.9523 260.98 83.298 261.082 83.706 261.082ZM90.1304 262V253.738H91.2864L91.4054 255.234H91.4564C91.7397 254.713 92.0797 254.299 92.4764 253.993C92.8844 253.687 93.3264 253.534 93.8024 253.534C94.1311 253.534 94.4257 253.591 94.6864 253.704L94.4144 254.928C94.2784 254.883 94.1537 254.849 94.0404 254.826C93.9271 254.803 93.7854 254.792 93.6154 254.792C93.2641 254.792 92.8957 254.934 92.5104 255.217C92.1364 255.5 91.8077 255.993 91.5244 256.696V262H90.1304ZM99.3769 262.204C98.8216 262.204 98.3003 262.108 97.8129 261.915C97.3369 261.711 96.9176 261.428 96.5549 261.065C96.2036 260.691 95.9259 260.238 95.7219 259.705C95.5179 259.172 95.4159 258.566 95.4159 257.886C95.4159 257.206 95.5179 256.6 95.7219 256.067C95.9373 255.523 96.2149 255.064 96.5549 254.69C96.9063 254.316 97.3029 254.033 97.7449 253.84C98.1869 253.636 98.6459 253.534 99.1219 253.534C99.6433 253.534 100.108 253.625 100.516 253.806C100.935 253.987 101.281 254.248 101.553 254.588C101.836 254.928 102.052 255.336 102.199 255.812C102.346 256.288 102.42 256.821 102.42 257.41C102.42 257.557 102.414 257.705 102.403 257.852C102.403 257.988 102.392 258.107 102.369 258.209H96.7929C96.8496 259.093 97.1216 259.796 97.6089 260.317C98.1076 260.827 98.7536 261.082 99.5469 261.082C99.9436 261.082 100.306 261.025 100.635 260.912C100.975 260.787 101.298 260.629 101.604 260.436L102.097 261.354C101.734 261.581 101.332 261.779 100.89 261.949C100.448 262.119 99.9436 262.204 99.3769 262.204ZM96.7759 257.206H101.196C101.196 256.367 101.015 255.733 100.652 255.302C100.301 254.86 99.8019 254.639 99.1559 254.639C98.8613 254.639 98.5779 254.696 98.3059 254.809C98.0453 254.922 97.8073 255.092 97.5919 255.319C97.3766 255.534 97.1953 255.801 97.0479 256.118C96.9119 256.435 96.8213 256.798 96.7759 257.206ZM108.205 262V253.738H109.361L109.48 254.928H109.531C109.928 254.531 110.341 254.203 110.772 253.942C111.214 253.67 111.724 253.534 112.302 253.534C113.175 253.534 113.809 253.806 114.206 254.35C114.614 254.894 114.818 255.699 114.818 256.764V262H113.424V256.951C113.424 256.169 113.299 255.608 113.05 255.268C112.801 254.917 112.404 254.741 111.86 254.741C111.429 254.741 111.05 254.849 110.721 255.064C110.392 255.279 110.018 255.597 109.599 256.016V262H108.205ZM121.021 262.204C120.465 262.204 119.944 262.108 119.457 261.915C118.981 261.711 118.561 261.428 118.199 261.065C117.847 260.691 117.57 260.238 117.366 259.705C117.162 259.172 117.06 258.566 117.06 257.886C117.06 257.206 117.162 256.6 117.366 256.067C117.581 255.523 117.859 255.064 118.199 254.69C118.55 254.316 118.947 254.033 119.389 253.84C119.831 253.636 120.29 253.534 120.766 253.534C121.287 253.534 121.752 253.625 122.16 253.806C122.579 253.987 122.925 254.248 123.197 254.588C123.48 254.928 123.695 255.336 123.843 255.812C123.99 256.288 124.064 256.821 124.064 257.41C124.064 257.557 124.058 257.705 124.047 257.852C124.047 257.988 124.035 258.107 124.013 258.209H118.437C118.493 259.093 118.765 259.796 119.253 260.317C119.751 260.827 120.397 261.082 121.191 261.082C121.587 261.082 121.95 261.025 122.279 260.912C122.619 260.787 122.942 260.629 123.248 260.436L123.741 261.354C123.378 261.581 122.976 261.779 122.534 261.949C122.092 262.119 121.587 262.204 121.021 262.204ZM118.42 257.206H122.84C122.84 256.367 122.658 255.733 122.296 255.302C121.944 254.86 121.446 254.639 120.8 254.639C120.505 254.639 120.222 254.696 119.95 254.809C119.689 254.922 119.451 255.092 119.236 255.319C119.02 255.534 118.839 255.801 118.692 256.118C118.556 256.435 118.465 256.798 118.42 257.206ZM127.947 262.204C127.256 262.204 126.678 262 126.213 261.592C125.76 261.184 125.533 260.606 125.533 259.858C125.533 258.951 125.935 258.26 126.74 257.784C127.545 257.297 128.831 256.957 130.599 256.764C130.599 256.503 130.571 256.248 130.514 255.999C130.469 255.75 130.384 255.529 130.259 255.336C130.134 255.143 129.959 254.99 129.732 254.877C129.517 254.752 129.239 254.69 128.899 254.69C128.423 254.69 127.975 254.781 127.556 254.962C127.137 255.143 126.763 255.347 126.434 255.574L125.89 254.605C126.275 254.356 126.746 254.118 127.301 253.891C127.856 253.653 128.468 253.534 129.137 253.534C130.146 253.534 130.877 253.846 131.33 254.469C131.783 255.081 132.01 255.903 132.01 256.934V262H130.854L130.735 261.014H130.684C130.287 261.343 129.862 261.626 129.409 261.864C128.956 262.091 128.468 262.204 127.947 262.204ZM128.355 261.082C128.752 261.082 129.126 260.991 129.477 260.81C129.828 260.617 130.202 260.34 130.599 259.977V257.682C129.908 257.773 129.324 257.88 128.848 258.005C128.383 258.13 128.004 258.277 127.709 258.447C127.426 258.617 127.216 258.815 127.08 259.042C126.955 259.257 126.893 259.495 126.893 259.756C126.893 260.232 127.035 260.572 127.318 260.776C127.601 260.98 127.947 261.082 128.355 261.082ZM134.779 262V253.738H135.935L136.054 255.234H136.105C136.389 254.713 136.729 254.299 137.125 253.993C137.533 253.687 137.975 253.534 138.451 253.534C138.78 253.534 139.075 253.591 139.335 253.704L139.063 254.928C138.927 254.883 138.803 254.849 138.689 254.826C138.576 254.803 138.434 254.792 138.264 254.792C137.913 254.792 137.545 254.934 137.159 255.217C136.785 255.5 136.457 255.993 136.173 256.696V262H134.779ZM144.416 265.485V253.738H145.572L145.691 254.69H145.742C146.116 254.373 146.524 254.101 146.966 253.874C147.42 253.647 147.89 253.534 148.377 253.534C148.91 253.534 149.38 253.636 149.788 253.84C150.196 254.033 150.536 254.316 150.808 254.69C151.08 255.053 151.284 255.495 151.42 256.016C151.568 256.526 151.641 257.104 151.641 257.75C151.641 258.453 151.545 259.082 151.352 259.637C151.16 260.181 150.899 260.646 150.57 261.031C150.242 261.416 149.862 261.711 149.431 261.915C149.001 262.108 148.547 262.204 148.071 262.204C147.686 262.204 147.301 262.119 146.915 261.949C146.541 261.779 146.162 261.547 145.776 261.252L145.81 262.697V265.485H144.416ZM147.833 261.031C148.173 261.031 148.485 260.957 148.768 260.81C149.063 260.651 149.312 260.436 149.516 260.164C149.732 259.881 149.896 259.535 150.009 259.127C150.134 258.719 150.196 258.26 150.196 257.75C150.196 257.297 150.157 256.883 150.077 256.509C149.998 256.135 149.868 255.818 149.686 255.557C149.516 255.285 149.29 255.075 149.006 254.928C148.734 254.781 148.406 254.707 148.02 254.707C147.669 254.707 147.312 254.803 146.949 254.996C146.598 255.189 146.218 255.466 145.81 255.829V260.164C146.184 260.481 146.547 260.708 146.898 260.844C147.25 260.969 147.561 261.031 147.833 261.031ZM157.229 262.204C156.719 262.204 156.232 262.108 155.767 261.915C155.314 261.722 154.911 261.445 154.56 261.082C154.209 260.708 153.925 260.255 153.71 259.722C153.506 259.178 153.404 258.566 153.404 257.886C153.404 257.195 153.506 256.583 153.71 256.05C153.925 255.506 154.209 255.047 154.56 254.673C154.911 254.299 155.314 254.016 155.767 253.823C156.232 253.63 156.719 253.534 157.229 253.534C157.739 253.534 158.221 253.63 158.674 253.823C159.139 254.016 159.547 254.299 159.898 254.673C160.249 255.047 160.527 255.506 160.731 256.05C160.946 256.583 161.054 257.195 161.054 257.886C161.054 258.566 160.946 259.178 160.731 259.722C160.527 260.255 160.249 260.708 159.898 261.082C159.547 261.445 159.139 261.722 158.674 261.915C158.221 262.108 157.739 262.204 157.229 262.204ZM157.229 261.048C157.58 261.048 157.903 260.974 158.198 260.827C158.493 260.668 158.742 260.453 158.946 260.181C159.161 259.898 159.326 259.563 159.439 259.178C159.552 258.793 159.609 258.362 159.609 257.886C159.609 257.41 159.552 256.979 159.439 256.594C159.326 256.197 159.161 255.857 158.946 255.574C158.742 255.291 158.493 255.075 158.198 254.928C157.903 254.769 157.58 254.69 157.229 254.69C156.878 254.69 156.555 254.769 156.26 254.928C155.965 255.075 155.71 255.291 155.495 255.574C155.291 255.857 155.132 256.197 155.019 256.594C154.906 256.979 154.849 257.41 154.849 257.886C154.849 258.362 154.906 258.793 155.019 259.178C155.132 259.563 155.291 259.898 155.495 260.181C155.71 260.453 155.965 260.668 156.26 260.827C156.555 260.974 156.878 261.048 157.229 261.048ZM166.613 262.204C166.103 262.204 165.615 262.108 165.151 261.915C164.697 261.722 164.295 261.445 163.944 261.082C163.592 260.708 163.309 260.255 163.094 259.722C162.89 259.178 162.788 258.566 162.788 257.886C162.788 257.195 162.89 256.583 163.094 256.05C163.309 255.506 163.592 255.047 163.944 254.673C164.295 254.299 164.697 254.016 165.151 253.823C165.615 253.63 166.103 253.534 166.613 253.534C167.123 253.534 167.604 253.63 168.058 253.823C168.522 254.016 168.93 254.299 169.282 254.673C169.633 255.047 169.911 255.506 170.115 256.05C170.33 256.583 170.438 257.195 170.438 257.886C170.438 258.566 170.33 259.178 170.115 259.722C169.911 260.255 169.633 260.708 169.282 261.082C168.93 261.445 168.522 261.722 168.058 261.915C167.604 262.108 167.123 262.204 166.613 262.204ZM166.613 261.048C166.964 261.048 167.287 260.974 167.582 260.827C167.876 260.668 168.126 260.453 168.33 260.181C168.545 259.898 168.709 259.563 168.823 259.178C168.936 258.793 168.993 258.362 168.993 257.886C168.993 257.41 168.936 256.979 168.823 256.594C168.709 256.197 168.545 255.857 168.33 255.574C168.126 255.291 167.876 255.075 167.582 254.928C167.287 254.769 166.964 254.69 166.613 254.69C166.261 254.69 165.938 254.769 165.644 254.928C165.349 255.075 165.094 255.291 164.879 255.574C164.675 255.857 164.516 256.197 164.403 256.594C164.289 256.979 164.233 257.41 164.233 257.886C164.233 258.362 164.289 258.793 164.403 259.178C164.516 259.563 164.675 259.898 164.879 260.181C165.094 260.453 165.349 260.668 165.644 260.827C165.938 260.974 166.261 261.048 166.613 261.048ZM172.784 262V253.738H173.94L174.059 255.234H174.11C174.393 254.713 174.733 254.299 175.13 253.993C175.538 253.687 175.98 253.534 176.456 253.534C176.784 253.534 177.079 253.591 177.34 253.704L177.068 254.928C176.932 254.883 176.807 254.849 176.694 254.826C176.58 254.803 176.439 254.792 176.269 254.792C175.917 254.792 175.549 254.934 175.164 255.217C174.79 255.5 174.461 255.993 174.178 256.696V262H172.784ZM178.615 262.204C178.332 262.204 178.088 262.108 177.884 261.915C177.692 261.711 177.595 261.456 177.595 261.15C177.595 260.821 177.692 260.561 177.884 260.368C178.088 260.164 178.332 260.062 178.615 260.062C178.887 260.062 179.12 260.164 179.312 260.368C179.516 260.561 179.618 260.821 179.618 261.15C179.618 261.456 179.516 261.711 179.312 261.915C179.12 262.108 178.887 262.204 178.615 262.204Z" fill="black"/>
<path d="M142.747 241V238.977H145.093V232.738H143.07V231.191C143.66 231.078 144.158 230.942 144.566 230.783C144.974 230.624 145.371 230.432 145.756 230.205H147.592V238.977H149.615V241H142.747ZM155.486 241.204C154.964 241.204 154.454 241.102 153.956 240.898C153.468 240.694 153.032 240.377 152.647 239.946C152.273 239.515 151.972 238.966 151.746 238.297C151.519 237.617 151.406 236.801 151.406 235.849C151.406 234.84 151.525 233.968 151.763 233.231C152.012 232.494 152.335 231.888 152.732 231.412C153.14 230.936 153.604 230.585 154.126 230.358C154.658 230.12 155.208 230.001 155.775 230.001C156.489 230.001 157.106 230.131 157.628 230.392C158.149 230.641 158.58 230.942 158.92 231.293L157.611 232.789C157.418 232.585 157.169 232.409 156.863 232.262C156.557 232.103 156.245 232.024 155.928 232.024C155.633 232.024 155.355 232.081 155.095 232.194C154.834 232.307 154.602 232.5 154.398 232.772C154.205 233.033 154.046 233.378 153.922 233.809C153.797 234.24 153.723 234.767 153.701 235.39C153.837 235.209 153.995 235.05 154.177 234.914C154.358 234.767 154.545 234.648 154.738 234.557C154.93 234.455 155.123 234.381 155.316 234.336C155.508 234.279 155.69 234.251 155.86 234.251C156.324 234.251 156.749 234.319 157.135 234.455C157.531 234.591 157.871 234.795 158.155 235.067C158.449 235.339 158.676 235.685 158.835 236.104C158.993 236.523 159.073 237.016 159.073 237.583C159.073 238.15 158.976 238.654 158.784 239.096C158.591 239.538 158.33 239.918 158.002 240.235C157.684 240.552 157.305 240.796 156.863 240.966C156.432 241.125 155.973 241.204 155.486 241.204ZM155.435 239.334C155.809 239.334 156.126 239.198 156.387 238.926C156.659 238.643 156.795 238.195 156.795 237.583C156.795 237.005 156.659 236.603 156.387 236.376C156.126 236.138 155.792 236.019 155.384 236.019C155.1 236.019 154.811 236.104 154.517 236.274C154.233 236.433 153.978 236.705 153.752 237.09C153.808 237.521 153.893 237.878 154.007 238.161C154.12 238.444 154.25 238.677 154.398 238.858C154.545 239.028 154.704 239.153 154.874 239.232C155.055 239.3 155.242 239.334 155.435 239.334ZM163.056 236.75C162.659 236.75 162.291 236.671 161.951 236.512C161.611 236.353 161.316 236.121 161.067 235.815C160.829 235.509 160.642 235.141 160.506 234.71C160.37 234.268 160.302 233.769 160.302 233.214C160.302 232.659 160.37 232.166 160.506 231.735C160.642 231.304 160.829 230.942 161.067 230.647C161.316 230.341 161.611 230.109 161.951 229.95C162.291 229.791 162.659 229.712 163.056 229.712C163.453 229.712 163.821 229.791 164.161 229.95C164.501 230.109 164.79 230.341 165.028 230.647C165.277 230.942 165.47 231.304 165.606 231.735C165.753 232.166 165.827 232.659 165.827 233.214C165.827 233.769 165.753 234.268 165.606 234.71C165.47 235.141 165.277 235.509 165.028 235.815C164.79 236.121 164.501 236.353 164.161 236.512C163.821 236.671 163.453 236.75 163.056 236.75ZM163.056 235.356C163.339 235.356 163.577 235.197 163.77 234.88C163.974 234.563 164.076 234.007 164.076 233.214C164.076 232.421 163.974 231.871 163.77 231.565C163.577 231.259 163.339 231.106 163.056 231.106C162.773 231.106 162.529 231.259 162.325 231.565C162.132 231.871 162.036 232.421 162.036 233.214C162.036 234.007 162.132 234.563 162.325 234.88C162.529 235.197 162.773 235.356 163.056 235.356ZM163.43 241.204L169.414 229.712H170.859L164.875 241.204H163.43ZM171.233 241.204C170.836 241.204 170.468 241.125 170.128 240.966C169.788 240.807 169.493 240.575 169.244 240.269C169.006 239.963 168.819 239.595 168.683 239.164C168.547 238.722 168.479 238.223 168.479 237.668C168.479 237.113 168.547 236.62 168.683 236.189C168.819 235.758 169.006 235.396 169.244 235.101C169.493 234.795 169.788 234.563 170.128 234.404C170.468 234.245 170.836 234.166 171.233 234.166C171.63 234.166 171.998 234.245 172.338 234.404C172.678 234.563 172.967 234.795 173.205 235.101C173.454 235.396 173.647 235.758 173.783 236.189C173.93 236.62 174.004 237.113 174.004 237.668C174.004 238.223 173.93 238.722 173.783 239.164C173.647 239.595 173.454 239.963 173.205 240.269C172.967 240.575 172.678 240.807 172.338 240.966C171.998 241.125 171.63 241.204 171.233 241.204ZM171.233 239.81C171.516 239.81 171.754 239.651 171.947 239.334C172.151 239.017 172.253 238.461 172.253 237.668C172.253 236.875 172.151 236.325 171.947 236.019C171.754 235.713 171.516 235.56 171.233 235.56C170.95 235.56 170.706 235.713 170.502 236.019C170.309 236.325 170.213 236.875 170.213 237.668C170.213 238.461 170.309 239.017 170.502 239.334C170.706 239.651 170.95 239.81 171.233 239.81Z" fill="#16C7FF"/>
</svg>
