<svg xmlns="http://www.w3.org/2000/svg" viewBox="0 0 49.46 141.85"><defs><style>.cls-1{stroke:#000;stroke-miterlimit:10;}</style></defs><title>Asset 18</title><g id="Layer_2" data-name="Layer 2"><g id="Layer_1-2" data-name="Layer 1"><ellipse class="cls-1" cx="24.61" cy="15.24" rx="12.1" ry="14.74"/><path d="M38.37,30.34a1.29,1.29,0,0,1-1.28,1.55h-25a1.3,1.3,0,0,1-1.29-1.55l1.94-9.82H36.4Z"/><path d="M44,54.4c0-11.59-8.6-21-19.22-21S5.51,42.81,5.51,54.4Z"/><polygon points="47.53 119.99 1.92 119.99 7.59 53.61 41.85 53.61 47.53 119.99"/><polygon points="34.39 119.91 32.16 141.85 18.09 141.85 14.92 119.91 34.39 119.91"/><polygon points="5.51 54.4 0 97.88 4.79 98.05 7.47 54.4 5.51 54.4"/><polygon points="43.95 54.4 49.46 97.88 44.53 98.06 41.9 54.4 43.95 54.4"/></g></g></svg>